<svg xmlns="http://www.w3.org/2000/svg" width="40" height="40" viewBox="0 0 40 40">
  <metadata><?xpacket begin="﻿" id="W5M0MpCehiHzreSzNTczkc9d"?>
<x:xmpmeta xmlns:x="adobe:ns:meta/" x:xmptk="Adobe XMP Core 5.6-c142 79.160924, 2017/07/13-01:06:39        ">
   <rdf:RDF xmlns:rdf="http://www.w3.org/1999/02/22-rdf-syntax-ns#">
      <rdf:Description rdf:about=""/>
   </rdf:RDF>
</x:xmpmeta>
                                                                                                    
                                                                                                    
                                                                                                    
                                                                                                    
                                                                                                    
                                                                                                    
                                                                                                    
                                                                                                    
                                                                                                    
                                                                                                    
                                                                                                    
                                                                                                    
                                                                                                    
                                                                                                    
                                                                                                    
                                                                                                    
                                                                                                    
                                                                                                    
                                                                                                    
                                                                                                    
                           
<?xpacket end="w"?></metadata>
<defs>
    <style>
      .cls-1 {
        fill: #fff;
        fill-rule: evenodd;
      }
    </style>
  </defs>
  <path class="cls-1" d="M762.8,30.2a7.23,7.23,0,0,0-5.3-2.2h-25a7.515,7.515,0,0,0-7.5,7.5v25a7.515,7.515,0,0,0,7.5,7.5h25a7.507,7.507,0,0,0,7.5-7.5v-25a7.227,7.227,0,0,0-2.2-5.3h0Zm-2.463,13.972-9.166,9.167a1.61,1.61,0,0,1-1.171.5,1.632,1.632,0,0,1-.625-0.131,1.557,1.557,0,0,1-1.042-1.537V48a22.359,22.359,0,0,0-5.834.612,6.854,6.854,0,0,0-3.385,1.965q-2.76,3.1-1.616,12.319a0.855,0.855,0,0,1-.833.937,0.811,0.811,0,0,1-.651-0.312Q731.663,57.713,731.667,53q0-1.564.129-2.878a18,18,0,0,1,.561-2.9,11.549,11.549,0,0,1,1.158-2.839,11.9,11.9,0,0,1,1.992-2.486,11.057,11.057,0,0,1,2.969-2.059,18.1,18.1,0,0,1,4.232-1.328A28.728,28.728,0,0,1,748.333,38V33.832a1.555,1.555,0,0,1,1.042-1.535,1.48,1.48,0,0,1,1.8.363l9.166,9.168a1.63,1.63,0,0,1,0,2.344h0Zm0,0" transform="translate(-725 -28)"/>
</svg>
