<svg xmlns="http://www.w3.org/2000/svg" xmlns:xlink="http://www.w3.org/1999/xlink" version="1.1" width="256" height="256" viewBox="0 0 256 256" xml:space="preserve">
<desc>Created with Fabric.js 1.7.22</desc>
<defs>
</defs>
<g transform="translate(128 128) scale(0.72 0.72)" style="">
	<g style="stroke: none; stroke-width: 0; stroke-dasharray: none; stroke-linecap: butt; stroke-linejoin: miter; stroke-miterlimit: 10; fill: none; fill-rule: nonzero; opacity: 1;" transform="translate(-175.05 -175.05000000000004) scale(3.89 3.89)" >
	<path d="M 73.026 90 H 16.973 c -4.166 0 -7.554 -3.388 -7.554 -7.554 V 22.26 H 7.375 c -3.952 0 -7.168 -3.216 -7.168 -7.168 V 7.168 C 0.207 3.216 3.423 0 7.375 0 h 75.25 c 3.953 0 7.168 3.216 7.168 7.168 v 7.924 c 0 3.952 -3.215 7.168 -7.168 7.168 h -2.044 v 60.186 C 80.581 86.612 77.192 90 73.026 90 z M 7.375 2.967 c -2.317 0 -4.201 1.884 -4.201 4.201 v 7.924 c 0 2.317 1.884 4.201 4.201 4.201 h 5.011 v 63.153 c 0 2.53 2.058 4.587 4.587 4.587 h 56.053 c 2.53 0 4.588 -2.057 4.588 -4.587 V 19.293 h 5.011 c 2.317 0 4.201 -1.884 4.201 -4.201 V 7.168 c 0 -2.317 -1.884 -4.201 -4.201 -4.201 H 7.375 z" style="stroke: none; stroke-width: 1; stroke-dasharray: none; stroke-linecap: butt; stroke-linejoin: miter; stroke-miterlimit: 10; fill: rgb(0,0,0); fill-rule: nonzero; opacity: 1;" transform=" matrix(1 0 0 1 0 0) " stroke-linecap="round" />
	<path d="M 44.886 79.004 c -0.002 0 -0.004 0 -0.007 0 c -0.819 -0.004 -1.481 -0.671 -1.477 -1.49 L 43.63 26.31 c 0.004 -0.817 0.667 -1.477 1.484 -1.477 c 0.002 0 0.004 0 0.007 0 c 0.819 0.004 1.481 0.671 1.477 1.49 l -0.228 51.204 C 46.365 78.344 45.702 79.004 44.886 79.004 z" style="stroke: none; stroke-width: 1; stroke-dasharray: none; stroke-linecap: butt; stroke-linejoin: miter; stroke-miterlimit: 10; fill: rgb(0,0,0); fill-rule: nonzero; opacity: 1;" transform=" matrix(1 0 0 1 0 0) " stroke-linecap="round" />
	<path d="M 60.718 79.004 c -0.002 0 -0.004 0 -0.007 0 c -0.819 -0.004 -1.481 -0.671 -1.477 -1.49 l 0.228 -51.204 c 0.004 -0.819 0.685 -1.473 1.49 -1.477 c 0.819 0.004 1.481 0.671 1.477 1.49 l -0.228 51.204 C 62.197 78.344 61.534 79.004 60.718 79.004 z" style="stroke: none; stroke-width: 1; stroke-dasharray: none; stroke-linecap: butt; stroke-linejoin: miter; stroke-miterlimit: 10; fill: rgb(0,0,0); fill-rule: nonzero; opacity: 1;" transform=" matrix(1 0 0 1 0 0) " stroke-linecap="round" />
	<path d="M 29.054 79.004 c -0.002 0 -0.004 0 -0.007 0 c -0.819 -0.004 -1.481 -0.671 -1.477 -1.49 l 0.228 -51.204 c 0.004 -0.817 0.667 -1.477 1.484 -1.477 c 0.002 0 0.004 0 0.007 0 c 0.819 0.004 1.481 0.671 1.477 1.49 l -0.228 51.204 C 30.534 78.344 29.87 79.004 29.054 79.004 z" style="stroke: none; stroke-width: 1; stroke-dasharray: none; stroke-linecap: butt; stroke-linejoin: miter; stroke-miterlimit: 10; fill: rgb(0,0,0); fill-rule: nonzero; opacity: 1;" transform=" matrix(1 0 0 1 0 0) " stroke-linecap="round" />
</g>
</g>
</svg>